#!OML:ASF H:\Punching\Project 1\Capture day 1\Session 1\female.ASF
:FULLY-SPECIFIED
:DEGREES
1577
root 1.84233 15.6541 8.21281 21.0775 6.73133 -2.65863
lowerback 3.97181 0.515636 -0.549507
upperback -4.5825 0.691952 0.555922
thorax -7.02041 0.38796 0.819414
lowerneck -14.5541 2.04326 8.80688
upperneck 13.955 1.75908 -5.32866
head 6.7778 0.858187 -2.99101
rclavicle 1.1281e-014 -2.18663e-015
rhumerus -39.6828 11.3577 -84.375
rradius 51.4578
rwrist -5.0242
rhand -11.3349 -1.94605
rfingers 7.12502
rthumb 14.6979 -31.405
lclavicle 1.1281e-014 -2.18663e-015
lhumerus -37.533 -26.4289 92.2366
lradius 58.2162
lwrist -3.0464
lhand -11.0146 12.4823
lfingers 7.12502
lthumb 15.0064 41.9186
rfemur -35.811 -1.53237 7.9303
rtibia 30.0241
rfoot -10.0094 -11.5744
rtoes -12.8336
lfemur -19.1606 -7.82324 -12.1607
ltibia 23.8689
lfoot -20.9779 19.353
ltoes -7.45587
1578
root 1.89733 15.6512 8.1673 21.0241 6.31428 -2.78127
lowerback 3.78791 0.574066 -0.590381
upperback -4.58917 0.768878 0.568546
thorax -6.92319 0.428196 0.849431
lowerneck -14.567 2.11478 8.91442
upperneck 14.0331 1.8457 -5.40038
head 6.81345 0.900236 -3.02416
rclavicle 1.88845e-015 1.61016e-014
rhumerus -40.0983 10.3764 -84.5544
rradius 50.8887
rwrist -5.16105
rhand -11.6753 -1.91916
rfingers 7.12502
rthumb 14.3699 -31.4018
lclavicle 1.88845e-015 1.61016e-014
lhumerus -38.2492 -25.4363 92.5482
lradius 56.9728
lwrist -2.67933
lhand -11.1691 12.5245
lfingers 7.12502
lthumb 14.8576 41.9718
rfemur -35.5891 -2.5626 9.20822
rtibia 31.6077
rfoot -11.6054 -10.2032
rtoes -14.4657
lfemur -19.4251 -7.75263 -12.3578
ltibia 24.4215
lfoot -21.2796 19.5568
ltoes -7.07995
1579
root 1.95074 15.6483 8.12488 20.9757 5.90933 -2.96178
lowerback 3.5696 0.634137 -0.546375
upperback -4.59912 0.854417 0.586131
thorax -6.80862 0.468511 0.836947
lowerneck -14.582 2.19009 9.02332
upperneck 14.1423 1.93575 -5.4599
head 6.8599 0.945428 -3.05348
rclavicle 1.88845e-014 4.17448e-015
rhumerus -40.4604 9.40161 -84.7479
rradius 50.2375
rwrist -5.22532
rhand -11.9587 -1.91711
rfingers 7.12502
rthumb 14.0968 -31.419
lclavicle 1.88845e-014 4.17448e-015
lhumerus -38.9628 -24.446 92.8657
lradius 55.8347
lwrist -2.04015
lhand -11.4009 12.6951
lfingers 7.12502
lthumb 14.6342 42.1588
rfemur -35.3242 -3.48845 10.4887
rtibia 33.1483
rfoot -13.0419 -9.02221
rtoes -15.8185
lfemur -19.6808 -7.70616 -12.4763
ltibia 24.9602
lfoot -21.5808 19.8041
ltoes -6.74222
1580
root 2.00296 15.646 8.0856 20.9184 5.51211 -3.18646
lowerback 3.33702 0.694991 -0.430597
upperback -4.61222 0.945682 0.606854
thorax -6.68806 0.508246 0.787657
lowerneck -14.5855 2.268 9.13887
upperneck 14.2784 2.02912 -5.51617
head 6.9136 0.993371 -3.08274
rclavicle 2.03754e-015 2.38542e-015
rhumerus -40.7727 8.4425 -84.9571
rradius 49.5
rwrist -5.21134
rhand -12.1819 -1.94112
rfingers 7.12502
rthumb 13.8817 -31.4578
lclavicle 2.03754e-015 2.38542e-015
lhumerus -39.6716 -23.4477 93.1792
lradius 54.7686
lwrist -1.29439
lhand -11.6513 12.9347
lfingers 7.12502
lthumb 14.393 42.4157
rfemur -34.9936 -4.29964 11.7439
rtibia 34.6304
rfoot -14.2882 -8.01443
rtoes -16.9021
lfemur -19.9034 -7.70414 -12.5329
ltibia 25.4712
lfoot -21.878 20.101
ltoes -6.42392
1581
root 2.05378 15.6443 8.04855 20.8609 5.12678 -3.42845
lowerback 3.09624 0.75186 -0.270255
upperback -4.63666 1.03372 0.626411
thorax -6.57372 0.544364 0.713118
lowerneck -14.5606 2.34642 9.25275
upperneck 14.4392 2.12519 -5.56208
head 6.97074 1.04415 -3.10833
rclavicle -6.26172e-015 7.15625e-015
rhumerus -41.04 7.51391 -85.1846
rradius 48.6804
rwrist -5.13586
rhand -12.3287 -2.00798
rfingers 7.12502
rthumb 13.7403 -31.5343
lclavicle -6.26172e-015 7.15625e-015
lhumerus -40.38 -22.4282 93.4748
lradius 53.7424
lwrist -0.632641
lhand -11.8441 13.1828
lfingers 7.12502
lthumb 14.2072 42.6769
rfemur -34.6108 -4.99213 12.9355
rtibia 36.0615
rfoot -15.3278 -7.17886
rtoes -17.7633
lfemur -20.1112 -7.74977 -12.5529
ltibia 25.9662
lfoot -22.1719 20.4328
ltoes -6.11612
1582
root 2.10342 15.6429 8.01395 20.7925 4.7395 -3.66689
lowerback 2.86056 0.805875 -0.0900251
upperback -4.66846 1.11787 0.639351
thorax -6.46928 0.577602 0.621371
lowerneck -14.5167 2.42734 9.36675
upperneck 14.6299 2.22596 -5.59965
head 7.03484 1.09863 -3.13102
rclavicle 1.02871e-014 1.33186e-014
rhumerus -41.2601 6.62358 -85.4323
rradius 47.7868
rwrist -5.02641
rhand -12.3997 -2.13015
rfingers 7.12502
rthumb 13.6718 -31.6611
lclavicle 1.02871e-014 1.33186e-014
lhumerus -41.0846 -21.3783 93.7353
lradius 52.727
lwrist -0.211691
lhand -11.8984 13.3957
lfingers 7.12502
lthumb 14.1549 42.8935
rfemur -34.1559 -5.55079 14.0286
rtibia 37.4088
rfoot -16.1367 -6.50786
rtoes -18.4665
lfemur -20.2678 -7.84715 -12.5661
ltibia 26.4072
lfoot -22.4486 20.801
ltoes -5.80732
1583
root 2.15173 15.638 7.98122 20.7035 4.33666 -3.88527
lowerback 2.63802 0.858541 0.0874612
upperback -4.69829 1.19854 0.642818
thorax -6.36981 0.609142 0.521985
lowerneck -14.4682 2.51212 9.47843
upperneck 14.8495 2.33276 -5.6306
head 7.10821 1.15695 -3.15081
rclavicle -1.48592e-014 3.57812e-015
rhumerus -41.426 5.77909 -85.6975
rradius 46.8248
rwrist -4.87799
rhand -12.3985 -2.26453
rfingers 7.12502
rthumb 13.673 -31.7954
lclavicle -1.48592e-014 3.57812e-015
lhumerus -41.7707 -20.3013 93.9491
lradius 51.6934
lwrist -0.1133
lhand -11.7666 13.5265
lfingers 7.12502
lthumb 14.2819 43.0154
rfemur -33.6306 -5.9588 14.9948
rtibia 38.6651
rfoot -16.7409 -5.99089
rtoes -18.9928
lfemur -20.3642 -7.98809 -12.5967
ltibia 26.7989
lfoot -22.7171 21.1989
ltoes -5.46607
